<?xml version="1.0" standalone="no"?>
<!DOCTYPE svg PUBLIC "-//W3C//DTD SVG 20010904//EN"
 "http://www.w3.org/TR/2001/REC-SVG-20010904/DTD/svg10.dtd">
<svg version="1.0" xmlns="http://www.w3.org/2000/svg"
 viewBox="576 442.79998779296875 2347.844970703125 554.0999755859375"
 width="3500.000000"
 height="1440.000000"
 preserveAspectRatio="xMidYMid meet">

<g transform="translate(0.000000,1440.000000) scale(0.100000,-0.100000)"
fill="#000000" stroke="none">
<path fill="#342103" d="M6250 9808 l0 -164 1093 -524 c600 -288 1097 -525 1102 -528 50 -24
-153 104 -1080 683 -588 367 -1080 675 -1092 683 l-23 14 0 -164z"/>
<path fill="#342103" d="M10118 9282 c-603 -377 -1096 -688 -1094 -689 1 -1 496 234 1099 524
l1097 526 0 164 c0 90 -1 163 -2 162 -2 0 -497 -309 -1100 -687z"/>
<path fill="#E56500" d="M5762 7734 l3 -1984 1370 -646 c754 -355 1385 -652 1403 -659 l32
-14 0 1982 0 1982 -1178 554 c-647 305 -1279 603 -1405 662 l-227 108 2 -1985z"/>
<path fill="#E56500" d="M10303 9055 l-1403 -660 0 -1983 c0 -1091 3 -1981 8 -1979 4 2 633
297 1397 657 765 359 1393 656 1398 660 4 3 6 897 5 1986 l-3 1979 -1402 -660z"/>
<path fill="#342103" d="M27342 8920 c-235 -116 -262 -132 -262 -153 0 -33 11 -40 117 -81
120 -46 170 -72 183 -96 7 -12 9 -144 8 -382 l-3 -363 -25 1 c-14 1 -72 11
-130 24 -88 20 -134 24 -285 24 -154 0 -193 -3 -269 -22 -287 -72 -484 -252
-575 -527 -135 -409 19 -867 362 -1074 179 -108 415 -148 625 -105 75 15 203
70 270 114 l32 22 0 -80 c0 -85 12 -109 47 -98 10 3 59 35 108 71 50 35 151
96 226 135 75 38 142 77 149 85 7 8 10 26 6 39 -8 32 -51 46 -141 46 -57 0
-78 4 -96 19 l-24 19 -1 1245 c-1 684 -4 1249 -8 1256 -4 6 -17 11 -30 11 -12
0 -140 -58 -284 -130z m-239 -1199 c118 -31 232 -96 268 -154 18 -30 19 -56
19 -512 0 -299 -4 -494 -10 -517 -15 -54 -54 -95 -123 -129 -164 -83 -360 -76
-545 21 -192 99 -321 262 -373 469 -29 114 -23 328 11 436 66 210 191 332 394
385 98 26 258 26 359 1z"/>
<path fill="#342103" d="M20635 8920 c-115 -10 -297 -19 -402 -19 -179 -1 -194 -2 -213 -21
-25 -25 -26 -74 -2 -98 12 -12 53 -24 123 -36 153 -26 205 -42 228 -72 21 -27
21 -30 21 -1116 l0 -1090 -28 -28 c-24 -23 -40 -29 -98 -34 -137 -13 -188 -25
-206 -47 -33 -40 -15 -134 28 -145 13 -3 106 -1 206 5 233 14 400 14 661 0
206 -12 209 -12 229 9 16 15 21 33 20 67 -1 85 -31 99 -243 119 -79 7 -155 18
-167 25 -51 27 -52 43 -52 566 0 316 4 493 10 506 10 18 23 19 198 19 153 0
192 -3 209 -15 23 -16 288 -380 618 -848 211 -300 286 -384 398 -444 68 -36
77 -38 162 -38 79 0 96 4 144 28 70 37 138 108 173 182 32 69 34 78 12 99 -23
24 -38 20 -88 -23 -76 -66 -151 -63 -248 9 -67 51 -109 103 -210 265 -186 296
-328 495 -511 718 -53 64 -97 119 -97 122 0 2 31 20 69 40 188 99 337 282 386
475 24 91 16 270 -15 358 -31 88 -105 197 -181 265 -81 74 -229 148 -364 184
-91 23 -120 26 -330 29 -163 2 -291 -3 -440 -16z m550 -154 c312 -83 528 -366
488 -641 -29 -203 -183 -364 -401 -420 -156 -40 -487 -44 -524 -7 -16 16 -17
60 -18 525 -1 373 1 512 10 522 6 8 35 19 63 24 29 6 61 13 72 15 41 10 252
-3 310 -18z"/>
<path fill="#342103" d="M13290 8893 c-26 -9 -40 -36 -40 -75 0 -53 27 -78 84 -78 64 0 158
-32 215 -74 47 -35 165 -167 189 -213 7 -12 12 -64 12 -115 0 -181 -39 -922
-75 -1423 -29 -406 -37 -450 -85 -475 -12 -6 -75 -18 -141 -26 -126 -15 -163
-25 -191 -51 -39 -36 -30 -135 14 -149 11 -3 115 0 232 6 199 12 450 10 682
-6 84 -6 93 -5 113 15 14 14 21 33 21 62 0 84 -35 105 -201 118 -139 11 -160
24 -172 102 -12 74 -13 1413 -1 1518 5 49 14 86 21 88 22 8 247 -350 503 -797
175 -306 277 -494 443 -819 158 -308 174 -331 238 -331 64 0 75 17 444 705
412 767 668 1215 708 1236 15 9 23 7 36 -5 14 -15 16 -90 19 -789 l3 -772 -23
-45 c-32 -62 -82 -85 -227 -103 -139 -18 -165 -33 -169 -98 -2 -34 2 -50 19
-67 21 -24 22 -24 178 -15 201 10 551 10 758 0 156 -9 162 -8 182 12 15 15 21
34 21 65 0 67 -21 85 -110 97 -225 29 -245 37 -266 100 -16 48 -39 2074 -25
2113 14 35 67 58 207 91 175 41 184 47 184 128 0 78 6 77 -341 77 -221 0 -310
-4 -328 -13 -17 -8 -83 -122 -224 -387 -766 -1435 -897 -1675 -917 -1684 -16
-7 -27 -4 -48 11 -40 30 -424 644 -859 1373 -211 355 -395 656 -409 670 l-24
25 -318 2 c-174 1 -324 -1 -332 -4z"/>
<path fill="#342103" d="M24840 7920 c-220 -57 -410 -211 -410 -332 0 -48 34 -96 83 -118 86
-39 133 -22 183 68 74 132 180 210 297 219 162 13 307 -117 337 -302 16 -95
13 -290 -4 -304 -8 -7 -56 -16 -107 -22 -428 -44 -633 -139 -727 -336 -33 -70
-37 -88 -40 -175 -5 -120 18 -207 78 -290 45 -63 132 -127 212 -155 84 -29
249 -24 353 10 95 32 163 69 227 127 l48 42 51 -56 c123 -135 294 -152 417
-41 104 93 163 285 88 285 -18 0 -32 -13 -55 -48 -36 -57 -69 -77 -122 -76
-44 2 -81 23 -106 61 -16 25 -19 73 -24 543 -7 541 -9 558 -56 659 -55 115
-194 214 -348 246 -101 21 -282 19 -375 -5z m488 -942 c19 -19 17 -400 -3
-437 -21 -41 -90 -97 -165 -134 -60 -30 -72 -32 -171 -32 -103 0 -109 1 -150
30 -63 44 -93 109 -97 211 -3 66 0 90 18 132 25 57 95 129 156 160 121 61 378
104 412 70z"/>
<path fill="#342103" d="M28880 7919 c-32 -20 -39 -21 -141 -9 -348 38 -622 -124 -670 -397
-19 -110 17 -247 89 -335 86 -108 199 -169 421 -228 172 -46 257 -83 315 -138
135 -129 93 -336 -83 -415 -57 -25 -193 -34 -273 -18 -72 15 -180 68 -245 119
-74 59 -103 114 -114 215 -13 115 -20 127 -68 127 -64 0 -66 -7 -63 -228 2
-142 6 -202 17 -221 37 -73 177 -162 314 -200 232 -64 452 -43 610 59 145 94
234 237 248 400 16 189 -102 389 -282 475 -40 20 -150 55 -246 80 -250 65
-351 117 -403 209 -48 83 -42 166 16 232 88 100 255 111 411 26 73 -40 130
-107 156 -185 27 -80 59 -111 105 -101 42 9 66 32 66 63 0 39 -68 412 -81 444
-11 26 -36 47 -56 47 -4 0 -24 -10 -43 -21z"/>
<path fill="#342103" d="M23375 7916 c-272 -63 -467 -266 -553 -574 -25 -91 -27 -110 -27
-302 0 -180 3 -216 23 -294 93 -366 368 -589 727 -589 179 0 332 47 485 148
76 51 203 172 226 217 22 42 15 80 -18 96 -35 17 -62 5 -134 -58 -130 -114
-265 -170 -429 -178 -178 -8 -294 36 -416 157 -59 59 -85 95 -118 161 -41 84
-86 233 -77 257 3 6 19 19 36 28 30 16 729 257 901 311 136 43 188 73 216 128
23 45 9 87 -58 171 -106 133 -282 254 -444 305 -89 28 -254 36 -340 16z m241
-251 c56 -27 100 -59 152 -110 76 -75 89 -107 55 -137 -21 -17 -715 -288 -747
-291 -19 -2 -21 4 -24 67 -8 178 75 383 186 459 67 47 107 58 208 54 83 -3 99
-6 170 -42z"/>
<path fill="#342103" d="M17137 7851 c-13 -15 -15 -76 -5 -103 4 -9 31 -23 61 -32 29 -8 61
-24 69 -33 50 -57 485 -916 596 -1178 68 -160 78 -202 62 -262 -27 -111 -182
-353 -273 -427 -23 -19 -91 -67 -151 -108 -136 -92 -168 -129 -174 -201 -5
-69 15 -110 68 -137 115 -59 222 2 358 204 271 400 574 1038 878 1850 51 137
101 258 111 267 11 11 47 23 87 29 99 16 106 21 106 80 0 27 -5 52 -11 56 -6
3 -162 7 -347 7 l-336 0 -18 -23 c-51 -63 2 -120 111 -120 73 0 120 -17 132
-48 27 -72 -48 -317 -241 -783 -79 -190 -107 -238 -129 -224 -15 8 -159 297
-250 498 -79 174 -162 378 -184 454 -22 73 -7 89 88 102 79 11 105 32 105 85
0 61 13 58 -360 60 -279 1 -344 -2 -353 -13z"/>
</g>
</svg>
